<svg width="36" height="36" viewBox="0 0 36 36" fill="none" xmlns="http://www.w3.org/2000/svg">
<path d="M28.9833 14.4476C29.3555 15.5624 29.5416 16.863 29.5416 18.1637C29.5416 24.6669 24.3303 29.8695 17.8161 29.8695C11.3018 29.8695 6.09046 24.6669 6.09046 18.1637C6.09046 11.6605 11.3018 6.45789 17.8161 6.45789C19.1189 6.45789 20.4217 6.64369 21.5385 7.01531V4.41402C20.2356 4.0424 19.1189 3.8566 17.8161 3.8566C9.99899 3.8566 3.6709 10.174 3.6709 17.9779C3.6709 25.7818 9.99899 32.0992 17.8161 32.0992C25.6331 32.0992 31.9612 25.7818 31.9612 17.9779C31.9612 16.6772 31.7751 15.3766 31.4028 14.2618C31.589 14.4476 28.9833 14.4476 28.9833 14.4476Z" fill="black"/>
<path d="M28.2384 7.75891V5.15701H26.1918V7.75891H23.5854V9.80281H26.1918V12.4038H28.2384V9.80281H30.8448V7.75891H28.2384Z" fill="black"/>
<path d="M21.2992 22.9756V15.1717H19.438V13.3132H23.7193V22.9756H21.2992Z" fill="black"/>
<path d="M10.8129 23.0943V21.3956L14.366 18.0394C14.6192 17.8019 14.8045 17.5919 14.9221 17.4092C15.0486 17.2266 15.13 17.0622 15.1662 16.9161C15.2114 16.7608 15.234 16.6192 15.234 16.4914C15.234 16.1809 15.13 15.9389 14.9221 15.7653C14.7232 15.5918 14.4203 15.5051 14.0134 15.5051C13.6699 15.5051 13.3489 15.5827 13.0506 15.7379C12.7522 15.8932 12.5081 16.1261 12.3183 16.4366L10.3247 15.3133C10.6773 14.7105 11.1881 14.2265 11.8572 13.8612C12.5262 13.4959 13.3263 13.3132 14.2575 13.3132C14.9899 13.3132 15.6318 13.4319 16.1833 13.6694C16.7348 13.9068 17.1642 14.2447 17.4716 14.6831C17.7881 15.1215 17.9463 15.6375 17.9463 16.2311C17.9463 16.5416 17.9056 16.8521 17.8242 17.1626C17.7429 17.464 17.5846 17.7882 17.3496 18.1353C17.1236 18.4732 16.7845 18.8522 16.3325 19.2723L13.5117 21.9025L13.0641 20.9436H18.204V23.0943H10.8129Z" fill="black"/>
</svg>
