<svg width="300" height="217" viewBox="0 0 300 217" fill="none" xmlns="http://www.w3.org/2000/svg">
<rect width="300" height="216.118" rx="16" fill="#071239"/>
<rect x="24.0002" y="24" width="45" height="45" rx="5.29412" fill="#F1C900"/>
<path d="M46.5002 30.6177L50.066 41.5921H61.6052L52.2698 48.3747L55.8356 59.3491L46.5002 52.5665L37.1648 59.3491L40.7306 48.3747L31.3952 41.5921H42.9344L46.5002 30.6177Z" fill="#071239"/>
<rect x="75.7502" y="24" width="45" height="45" rx="5.29412" fill="#F1C900"/>
<path d="M98.2502 30.6177L101.816 41.5921H113.355L104.02 48.3747L107.586 59.3491L98.2502 52.5665L88.9148 59.3491L92.4806 48.3747L83.1452 41.5921H94.6844L98.2502 30.6177Z" fill="#071239"/>
<rect x="127.5" y="24" width="45" height="45" rx="5.29412" fill="#F1C900"/>
<path d="M150 30.6177L153.566 41.5921H165.105L155.77 48.3747L159.336 59.3491L150 52.5665L140.665 59.3491L144.231 48.3747L134.895 41.5921H146.434L150 30.6177Z" fill="#071239"/>
<rect x="179.25" y="24" width="45" height="45" rx="5.29412" fill="#F1C900"/>
<path d="M201.75 30.6177L205.316 41.5921H216.855L207.52 48.3747L211.086 59.3491L201.75 52.5665L192.415 59.3491L195.981 48.3747L186.645 41.5921H198.184L201.75 30.6177Z" fill="#071239"/>
<g clip-path="url(#clip0_491_657)">
<rect x="231" y="24" width="45" height="45" rx="5.29412" fill="#C4C4C4"/>
<rect x="231" y="23" width="13.5" height="47" fill="#F1C900"/>
<path d="M253.5 30.6177L257.066 41.5921H268.605L259.27 48.3747L262.836 59.3491L253.5 52.5665L244.165 59.3491L247.731 48.3747L238.395 41.5921H249.934L253.5 30.6177Z" fill="#071239"/>
</g>
<path d="M43.7017 104.496H26.7354V98.7882L39.6979 80.5534H50.9956V98.7882H54.7615V104.496H50.9956V110.284H43.7017V104.496ZM43.7017 98.7882V84.9139L34.1482 98.7882H43.7017ZM60.3409 106.756C60.3409 105.593 60.7109 104.668 61.4508 103.981C62.1908 103.268 63.1818 102.911 64.4239 102.911C65.6395 102.911 66.6174 103.268 67.3573 103.981C68.1237 104.668 68.5069 105.593 68.5069 106.756C68.5069 107.945 68.1237 108.897 67.3573 109.61C66.6174 110.297 65.6395 110.641 64.4239 110.641C63.1818 110.641 62.1908 110.297 61.4508 109.61C60.7109 108.897 60.3409 107.945 60.3409 106.756ZM83.3161 92.8817H88.2316C89.5794 92.8024 90.6893 92.406 91.5614 91.6925C92.46 90.9789 92.9092 90.0936 92.9092 89.0365C92.9092 88.0587 92.4335 87.2659 91.4822 86.6581C90.5308 86.0502 89.2226 85.7463 87.5577 85.7463C86.6856 85.7463 85.8664 85.8653 85.1 86.1031C84.3336 86.3145 83.6597 86.6316 83.0783 87.0545C82.5233 87.4509 82.0741 87.9266 81.7305 88.4816C81.387 89.0101 81.2152 89.5915 81.2152 90.2257L74.1591 89.6311C74.5291 86.407 75.8769 83.9229 78.2025 82.1787C80.5281 80.4345 83.8843 79.5624 88.2712 79.5624C90.0947 79.5624 91.72 79.7606 93.1471 80.157C94.6006 80.5534 95.8294 81.1216 96.8337 81.8615C97.8379 82.5751 98.6043 83.4472 99.1328 84.4778C99.6878 85.4821 99.9653 86.6184 99.9653 87.8869C99.9653 89.6311 99.5292 91.0978 98.6571 92.2871C97.8115 93.4763 96.5958 94.4012 95.0102 95.0619C96.9922 95.564 98.4986 96.3965 99.5292 97.5593C100.586 98.6957 101.115 100.268 101.115 102.277C101.115 103.571 100.837 104.774 100.282 105.884C99.7539 106.967 98.9611 107.906 97.904 108.698C96.8469 109.491 95.5387 110.112 93.9795 110.561C92.4203 111.011 90.6233 111.235 88.5884 111.235C84.0429 111.235 80.5941 110.376 78.2421 108.659C75.8901 106.915 74.5291 104.43 74.1591 101.206L81.2152 100.572C81.2152 101.153 81.3605 101.722 81.6512 102.277C81.9419 102.805 82.3648 103.281 82.9197 103.704C83.5011 104.126 84.2015 104.47 85.0207 104.734C85.8399 104.972 86.7781 105.091 87.8352 105.091C89.8701 105.091 91.4161 104.761 92.4732 104.1C93.5303 103.439 94.0588 102.514 94.0588 101.325C94.0588 100.321 93.4906 99.5149 92.3543 98.9071C91.2443 98.2728 89.738 97.9557 87.8352 97.9557H83.3161V92.8817ZM121.701 101.206C122.626 101.735 123.617 102.224 124.674 102.673C125.758 103.122 126.868 103.505 128.004 103.823C129.167 104.14 130.343 104.391 131.532 104.576C132.721 104.761 133.897 104.853 135.06 104.853C136.884 104.853 138.284 104.642 139.262 104.219C140.24 103.796 140.729 103.254 140.729 102.594C140.729 102.118 140.425 101.695 139.817 101.325C139.236 100.955 138.469 100.612 137.518 100.295C136.566 99.951 135.47 99.6206 134.228 99.3035C133.012 98.9599 131.757 98.5767 130.462 98.1539C129.167 97.7046 127.898 97.2157 126.656 96.6872C125.441 96.1322 124.357 95.4715 123.406 94.7052C122.454 93.9388 121.675 93.0535 121.067 92.0492C120.485 91.045 120.195 89.8822 120.195 88.5608C120.195 87.2659 120.499 86.0767 121.107 84.9932C121.741 83.9096 122.639 82.9715 123.802 82.1787C124.991 81.3858 126.445 80.778 128.163 80.3552C129.88 79.9059 131.836 79.6813 134.029 79.6813C136.17 79.6813 138.033 79.8795 139.619 80.2759C141.231 80.6723 142.592 81.1084 143.702 81.5841C144.997 82.139 146.12 82.7733 147.071 83.4868L143.86 89.0365C143.226 88.6137 142.486 88.2173 141.64 87.8473C140.821 87.4773 139.949 87.1602 139.024 86.8959C138.126 86.6316 137.201 86.4202 136.249 86.2617C135.324 86.1031 134.439 86.0238 133.593 86.0238C131.796 86.0238 130.343 86.2749 129.233 86.777C128.123 87.2791 127.568 87.953 127.568 88.7987C127.568 89.3272 127.859 89.7897 128.44 90.1861C129.048 90.5561 129.828 90.9129 130.779 91.2564C131.757 91.5735 132.853 91.9039 134.069 92.2474C135.311 92.5646 136.58 92.9345 137.875 93.3574C139.17 93.7538 140.425 94.2163 141.64 94.7448C142.883 95.2733 143.979 95.9076 144.931 96.6476C145.908 97.3611 146.688 98.22 147.269 99.2242C147.877 100.202 148.181 101.352 148.181 102.673C148.181 103.704 147.917 104.734 147.388 105.765C146.886 106.769 146.08 107.694 144.97 108.54C143.887 109.359 142.499 110.02 140.808 110.522C139.143 111.05 137.135 111.315 134.783 111.315C132.483 111.315 130.382 111.116 128.48 110.72C126.603 110.35 124.978 109.927 123.604 109.452C121.992 108.897 120.538 108.276 119.243 107.588L121.701 101.206ZM161.454 86.8959H151.821V80.5534H178.38V86.8959H168.748V110.284H161.454V86.8959ZM186.403 80.5534H197.581L208.364 110.284H200.594L198.771 104.853H185.174L183.39 110.284H175.62L186.403 80.5534ZM196.828 99.026L192.864 87.213H191.08L187.116 99.026H196.828ZM212.245 80.5534H228.577C230.321 80.5534 231.933 80.7384 233.413 81.1084C234.893 81.4783 236.175 82.0862 237.258 82.9318C238.342 83.7775 239.187 84.8742 239.795 86.222C240.429 87.5698 240.747 89.2215 240.747 91.1771C240.747 92.4985 240.575 93.7009 240.231 94.7844C239.914 95.8415 239.452 96.7929 238.844 97.6386C238.262 98.4578 237.562 99.1714 236.743 99.7792C235.924 100.361 235.038 100.849 234.087 101.246L241.262 110.284H232.422L226.952 102.832H219.539V110.284H212.245V80.5534ZM219.539 86.8959V96.5683H228.656C230.189 96.5683 231.365 96.1983 232.184 95.4583C233.003 94.6919 233.413 93.5159 233.413 91.9303C233.413 90.9789 233.268 90.1861 232.977 89.5519C232.713 88.8912 232.356 88.3758 231.907 88.0059C231.457 87.6095 230.942 87.332 230.361 87.1734C229.806 86.9884 229.237 86.8959 228.656 86.8959H219.539ZM247.166 101.206C248.091 101.735 249.082 102.224 250.139 102.673C251.222 103.122 252.332 103.505 253.469 103.823C254.632 104.14 255.808 104.391 256.997 104.576C258.186 104.761 259.362 104.853 260.525 104.853C262.348 104.853 263.749 104.642 264.727 104.219C265.705 103.796 266.193 103.254 266.193 102.594C266.193 102.118 265.89 101.695 265.282 101.325C264.7 100.955 263.934 100.612 262.983 100.295C262.031 99.951 260.934 99.6206 259.692 99.3035C258.477 98.9599 257.221 98.5767 255.926 98.1539C254.632 97.7046 253.363 97.2157 252.121 96.6872C250.905 96.1322 249.822 95.4715 248.87 94.7052C247.919 93.9388 247.139 93.0535 246.532 92.0492C245.95 91.045 245.66 89.8822 245.66 88.5608C245.66 87.2659 245.963 86.0767 246.571 84.9932C247.205 83.9096 248.104 82.9715 249.267 82.1787C250.456 81.3858 251.91 80.778 253.627 80.3552C255.345 79.9059 257.301 79.6813 259.494 79.6813C261.635 79.6813 263.498 79.8795 265.083 80.2759C266.696 80.6723 268.057 81.1084 269.167 81.5841C270.461 82.139 271.585 82.7733 272.536 83.4868L269.325 89.0365C268.691 88.6137 267.951 88.2173 267.105 87.8473C266.286 87.4773 265.414 87.1602 264.489 86.8959C263.59 86.6316 262.665 86.4202 261.714 86.2617C260.789 86.1031 259.904 86.0238 259.058 86.0238C257.261 86.0238 255.808 86.2749 254.698 86.777C253.588 87.2791 253.033 87.953 253.033 88.7987C253.033 89.3272 253.323 89.7897 253.905 90.1861C254.513 90.5561 255.292 90.9129 256.244 91.2564C257.221 91.5735 258.318 91.9039 259.534 92.2474C260.776 92.5646 262.044 92.9345 263.339 93.3574C264.634 93.7538 265.89 94.2163 267.105 94.7448C268.347 95.2733 269.444 95.9076 270.395 96.6476C271.373 97.3611 272.153 98.22 272.734 99.2242C273.342 100.202 273.646 101.352 273.646 102.673C273.646 103.704 273.382 104.734 272.853 105.765C272.351 106.769 271.545 107.694 270.435 108.54C269.351 109.359 267.964 110.02 266.273 110.522C264.608 111.05 262.599 111.315 260.247 111.315C257.948 111.315 255.847 111.116 253.944 110.72C252.068 110.35 250.443 109.927 249.069 109.452C247.457 108.897 246.003 108.276 244.708 107.588L247.166 101.206Z" fill="white"/>
<path d="M37.2278 141.07V146.779L35.8354 168.779L38.0633 181.451L68.0011 182.147L75.7988 173.374L72.8746 141.07H37.2278Z" fill="#071239"/>
<path d="M52.312 128.451C53.7815 126.895 56.2478 126.895 57.7173 128.451L61.6968 132.686C62.6643 133.719 64.0974 134.184 65.4868 133.915L71.1978 132.831C73.3 132.431 75.3005 133.886 75.5698 136.01L76.2974 141.772C76.4792 143.176 77.3598 144.398 78.6401 144.994L83.8989 147.476C85.834 148.392 86.5984 150.742 85.5728 152.612L82.772 157.711C82.0955 158.948 82.0956 160.453 82.772 161.697L85.5728 166.79C86.5985 168.667 85.834 171.017 83.8989 171.926L78.6401 174.407C77.3598 175.011 76.4792 176.226 76.2974 177.63L75.5698 183.399C75.3007 185.516 73.3001 186.97 71.1978 186.57L65.4868 185.487C64.0974 185.225 62.6643 185.683 61.6968 186.716L57.7173 190.95C56.2478 192.507 53.7815 192.507 52.312 190.95L48.3325 186.716C47.365 185.683 45.9319 185.225 44.5425 185.487L38.8315 186.57C36.7291 186.971 34.7286 185.516 34.4595 183.399L33.7319 177.63C33.5501 176.226 32.6695 175.011 31.3892 174.407L26.1294 171.926C24.1945 171.016 23.4308 168.667 24.4565 166.79L27.2573 161.697C27.941 160.454 27.9411 158.948 27.2573 157.711L24.4565 152.612C23.4308 150.742 24.1945 148.393 26.1294 147.476L31.3892 144.994C32.6695 144.398 33.5501 143.176 33.7319 141.772L34.4595 136.01C34.7288 133.886 36.7292 132.431 38.8315 132.831L44.5425 133.915C45.9319 134.184 47.365 133.719 48.3325 132.686L52.312 128.451ZM39.1294 143.503V177.361H63.9731C66.8539 177.361 69.4659 176.182 71.3501 174.298V174.305C73.227 172.428 74.4126 169.824 74.4126 166.936C74.4126 164.761 73.7362 162.709 72.5649 161.007C71.9902 160.17 71.2847 159.421 70.4917 158.78V153.303C70.4917 150.466 69.4513 148.094 67.7417 146.392C65.6321 144.282 62.8535 143.503 60.6929 143.503H39.1294ZM60.6929 145.679C62.3951 145.679 64.5771 146.305 66.2065 147.927C67.4869 149.215 68.3091 151.026 68.3091 153.303V159.902C69.2912 160.513 70.1279 161.305 70.7681 162.237C71.6992 163.59 72.2309 165.212 72.231 166.936C72.231 169.213 71.2995 171.279 69.8081 172.771C68.3168 174.262 66.2501 175.193 63.9731 175.193H41.3052V145.679H60.6929ZM43.4878 147.862V156.904L46.5356 157.922L53.6069 160.279L64.9341 164.055C66.1707 164.47 67.0073 165.619 67.0073 166.936C67.0073 168.602 65.6391 169.962 63.9731 169.962H46.5356V160.221L43.4878 159.202V173.01H63.9731C67.3196 173.01 70.0552 170.282 70.0552 166.936C70.0551 164.397 68.484 162.142 66.1343 161.239L63.0864 160.229L48.7104 155.435L46.5356 154.707V150.909H60.6704C61.3979 150.924 63.0864 151.186 63.0864 153.303V157.93L66.1343 158.948V153.303C66.1343 149.309 62.8753 147.862 60.6929 147.862H43.4878Z" fill="#F1C900"/>
<path d="M52.312 128.451C53.7815 126.895 56.2478 126.895 57.7173 128.451L61.6968 132.686C62.6643 133.719 64.0974 134.184 65.4868 133.915L71.1978 132.831C73.3 132.431 75.3005 133.886 75.5698 136.01L76.2974 141.772C76.4792 143.176 77.3598 144.398 78.6401 144.994L83.8989 147.476C85.834 148.392 86.5984 150.742 85.5728 152.612L82.772 157.711C82.0955 158.948 82.0956 160.453 82.772 161.697L85.5728 166.79C86.5985 168.667 85.834 171.017 83.8989 171.926L78.6401 174.407C77.3598 175.011 76.4792 176.226 76.2974 177.63L75.5698 183.399C75.3007 185.516 73.3001 186.97 71.1978 186.57L65.4868 185.487C64.0974 185.225 62.6643 185.683 61.6968 186.716L57.7173 190.95C56.2478 192.507 53.7815 192.507 52.312 190.95L48.3325 186.716C47.365 185.683 45.9319 185.225 44.5425 185.487L38.8315 186.57C36.7291 186.971 34.7286 185.516 34.4595 183.399L33.7319 177.63C33.5501 176.226 32.6695 175.011 31.3892 174.407L26.1294 171.926C24.1945 171.016 23.4308 168.667 24.4565 166.79L27.2573 161.697C27.941 160.454 27.9411 158.948 27.2573 157.711L24.4565 152.612C23.4308 150.742 24.1945 148.393 26.1294 147.476L31.3892 144.994C32.6695 144.398 33.5501 143.176 33.7319 141.772L34.4595 136.01C34.7288 133.886 36.7292 132.431 38.8315 132.831L44.5425 133.915C45.9319 134.184 47.365 133.719 48.3325 132.686L52.312 128.451ZM39.1294 143.503V177.361H63.9731C66.8539 177.361 69.4659 176.182 71.3501 174.298V174.305C73.227 172.428 74.4126 169.824 74.4126 166.936C74.4126 164.761 73.7362 162.709 72.5649 161.007C71.9902 160.17 71.2847 159.421 70.4917 158.78V153.303C70.4917 150.466 69.4513 148.094 67.7417 146.392C65.6321 144.282 62.8535 143.503 60.6929 143.503H39.1294ZM60.6929 145.679C62.3951 145.679 64.5771 146.305 66.2065 147.927C67.4869 149.215 68.3091 151.026 68.3091 153.303V159.902C69.2912 160.513 70.1279 161.305 70.7681 162.237C71.6992 163.59 72.2309 165.212 72.231 166.936C72.231 169.213 71.2995 171.279 69.8081 172.771C68.3168 174.262 66.2501 175.193 63.9731 175.193H41.3052V145.679H60.6929ZM43.4878 147.862V156.904L46.5356 157.922L53.6069 160.279L64.9341 164.055C66.1707 164.47 67.0073 165.619 67.0073 166.936C67.0073 168.602 65.6391 169.962 63.9731 169.962H46.5356V160.221L43.4878 159.202V173.01H63.9731C67.3196 173.01 70.0552 170.282 70.0552 166.936C70.0551 164.397 68.484 162.142 66.1343 161.239L63.0864 160.229L48.7104 155.435L46.5356 154.707V150.909H60.6704C61.3979 150.924 63.0864 151.186 63.0864 153.303V157.93L66.1343 158.948V153.303C66.1343 149.309 62.8753 147.862 60.6929 147.862H43.4878Z" fill="url(#paint0_linear_491_657)" fill-opacity="0.5"/>
<mask id="mask0_491_657" style="mask-type:alpha" maskUnits="userSpaceOnUse" x="23" y="127" width="64" height="66">
<path d="M52.312 128.451C53.7815 126.895 56.2478 126.895 57.7172 128.451L61.6967 132.686C62.6643 133.719 64.0973 134.184 65.4868 133.915L71.1977 132.831C73.2999 132.431 75.3004 133.886 75.5698 136.01L76.2973 141.772C76.4792 143.176 77.3597 144.398 78.6401 144.994L83.8989 147.476C85.834 148.392 86.5984 150.742 85.5727 152.612L82.7719 157.711C82.0954 158.948 82.0955 160.453 82.7719 161.697L85.5727 166.79C86.5984 168.667 85.834 171.017 83.8989 171.926L78.6401 174.407C77.3597 175.011 76.4792 176.226 76.2973 177.63L75.5698 183.399C75.3006 185.516 73.3 186.97 71.1977 186.57L65.4868 185.487C64.0974 185.225 62.6643 185.683 61.6967 186.716L57.7172 190.95C56.2477 192.507 53.7815 192.507 52.312 190.95L48.3325 186.716C47.3649 185.683 45.9318 185.225 44.5424 185.487L38.8315 186.57C36.729 186.971 34.7286 185.516 34.4594 183.399L33.7319 177.63C33.55 176.226 32.6695 175.011 31.3891 174.407L26.1293 171.926C24.1945 171.016 23.4308 168.667 24.4565 166.79L27.2573 161.697C27.9409 160.454 27.941 158.948 27.2573 157.711L24.4565 152.612C23.4308 150.742 24.1944 148.393 26.1293 147.476L31.3891 144.994C32.6695 144.398 33.55 143.176 33.7319 141.772L34.4594 136.01C34.7288 133.886 36.7292 132.431 38.8315 132.831L44.5424 133.915C45.9319 134.184 47.3649 133.719 48.3325 132.686L52.312 128.451ZM39.1293 143.503V177.361H63.9731C66.8539 177.361 69.4659 176.182 71.35 174.298V174.305C73.2269 172.428 74.4125 169.824 74.4125 166.936C74.4125 164.761 73.7361 162.709 72.5649 161.007C71.9902 160.17 71.2846 159.421 70.4916 158.78V153.303C70.4916 150.466 69.4512 148.094 67.7416 146.392C65.632 144.282 62.8534 143.503 60.6928 143.503H39.1293ZM60.6928 145.679C62.3951 145.679 64.577 146.305 66.2065 147.927C67.4869 149.215 68.309 151.026 68.309 153.303V159.902C69.2911 160.513 70.1278 161.305 70.768 162.237C71.6991 163.59 72.2309 165.212 72.2309 166.936C72.2309 169.213 71.2994 171.279 69.808 172.771C68.3167 174.262 66.2501 175.193 63.9731 175.193H41.3051V145.679H60.6928ZM43.4877 147.862V156.904L46.5356 157.922L53.6069 160.279L64.934 164.055C66.1706 164.47 67.0072 165.619 67.0073 166.936C67.0073 168.602 65.639 169.962 63.9731 169.962H46.5356V160.221L43.4877 159.202V173.01H63.9731C67.3195 173.01 70.0551 170.282 70.0551 166.936C70.055 164.397 68.4839 162.142 66.1342 161.239L63.0864 160.229L48.7104 155.435L46.5356 154.707V150.909H60.6703C61.3978 150.924 63.0864 151.186 63.0864 153.303V157.93L66.1342 158.948V153.303C66.1342 149.309 62.8753 147.862 60.6928 147.862H43.4877Z" fill="#F1C900"/>
<path d="M52.312 128.451C53.7815 126.895 56.2478 126.895 57.7172 128.451L61.6967 132.686C62.6643 133.719 64.0973 134.184 65.4868 133.915L71.1977 132.831C73.2999 132.431 75.3004 133.886 75.5698 136.01L76.2973 141.772C76.4792 143.176 77.3597 144.398 78.6401 144.994L83.8989 147.476C85.834 148.392 86.5984 150.742 85.5727 152.612L82.7719 157.711C82.0954 158.948 82.0955 160.453 82.7719 161.697L85.5727 166.79C86.5984 168.667 85.834 171.017 83.8989 171.926L78.6401 174.407C77.3597 175.011 76.4792 176.226 76.2973 177.63L75.5698 183.399C75.3006 185.516 73.3 186.97 71.1977 186.57L65.4868 185.487C64.0974 185.225 62.6643 185.683 61.6967 186.716L57.7172 190.95C56.2477 192.507 53.7815 192.507 52.312 190.95L48.3325 186.716C47.3649 185.683 45.9318 185.225 44.5424 185.487L38.8315 186.57C36.729 186.971 34.7286 185.516 34.4594 183.399L33.7319 177.63C33.55 176.226 32.6695 175.011 31.3891 174.407L26.1293 171.926C24.1945 171.016 23.4308 168.667 24.4565 166.79L27.2573 161.697C27.9409 160.454 27.941 158.948 27.2573 157.711L24.4565 152.612C23.4308 150.742 24.1944 148.393 26.1293 147.476L31.3891 144.994C32.6695 144.398 33.55 143.176 33.7319 141.772L34.4594 136.01C34.7288 133.886 36.7292 132.431 38.8315 132.831L44.5424 133.915C45.9319 134.184 47.3649 133.719 48.3325 132.686L52.312 128.451ZM39.1293 143.503V177.361H63.9731C66.8539 177.361 69.4659 176.182 71.35 174.298V174.305C73.2269 172.428 74.4125 169.824 74.4125 166.936C74.4125 164.761 73.7361 162.709 72.5649 161.007C71.9902 160.17 71.2846 159.421 70.4916 158.78V153.303C70.4916 150.466 69.4512 148.094 67.7416 146.392C65.632 144.282 62.8534 143.503 60.6928 143.503H39.1293ZM60.6928 145.679C62.3951 145.679 64.577 146.305 66.2065 147.927C67.4869 149.215 68.309 151.026 68.309 153.303V159.902C69.2911 160.513 70.1278 161.305 70.768 162.237C71.6991 163.59 72.2309 165.212 72.2309 166.936C72.2309 169.213 71.2994 171.279 69.808 172.771C68.3167 174.262 66.2501 175.193 63.9731 175.193H41.3051V145.679H60.6928ZM43.4877 147.862V156.904L46.5356 157.922L53.6069 160.279L64.934 164.055C66.1706 164.47 67.0072 165.619 67.0073 166.936C67.0073 168.602 65.639 169.962 63.9731 169.962H46.5356V160.221L43.4877 159.202V173.01H63.9731C67.3195 173.01 70.0551 170.282 70.0551 166.936C70.055 164.397 68.4839 162.142 66.1342 161.239L63.0864 160.229L48.7104 155.435L46.5356 154.707V150.909H60.6703C61.3978 150.924 63.0864 151.186 63.0864 153.303V157.93L66.1342 158.948V153.303C66.1342 149.309 62.8753 147.862 60.6928 147.862H43.4877Z" fill="url(#paint1_linear_491_657)" fill-opacity="0.5"/>
</mask>
<g mask="url(#mask0_491_657)">
<g style="mix-blend-mode:soft-light" filter="url(#filter0_f_491_657)">
<rect x="-3.83026" y="175.017" width="123.65" height="7.31171" transform="rotate(-31.1619 -3.83026 175.017)" fill="white"/>
</g>
<g style="mix-blend-mode:soft-light" filter="url(#filter1_f_491_657)">
<rect x="3.66968" y="196.838" width="123.65" height="3.89887" transform="rotate(-31.1619 3.66968 196.838)" fill="white"/>
</g>
</g>
<path d="M98.7355 136.436H111.836C112.695 136.436 113.502 136.533 114.256 136.726C115.028 136.918 115.703 137.225 116.282 137.646C116.861 138.05 117.317 138.567 117.65 139.198C118.001 139.83 118.176 140.584 118.176 141.461C118.176 142.636 117.887 143.591 117.308 144.328C116.729 145.047 115.966 145.582 115.019 145.933C116.159 146.231 117.071 146.757 117.755 147.511C118.439 148.265 118.781 149.335 118.781 150.72C118.781 151.615 118.614 152.404 118.281 153.088C117.965 153.772 117.527 154.342 116.966 154.798C116.405 155.254 115.729 155.596 114.94 155.824C114.169 156.052 113.336 156.166 112.441 156.166H98.7355V136.436ZM104.839 141.697V144.328H110.547C110.95 144.328 111.275 144.214 111.52 143.986C111.783 143.741 111.915 143.407 111.915 142.986C111.915 142.566 111.783 142.25 111.52 142.039C111.275 141.811 110.95 141.697 110.547 141.697H104.839ZM104.839 148.142V150.905H110.942C111.398 150.905 111.766 150.799 112.047 150.589C112.345 150.379 112.494 150.019 112.494 149.51C112.494 149.002 112.345 148.651 112.047 148.458C111.766 148.248 111.398 148.142 110.942 148.142H104.839ZM121.162 136.436H137.972V141.697H127.265V144.144H137.077V148.458H127.265V150.905H137.972V156.166H121.162V136.436ZM146.468 141.697H140.181V136.436H158.858V141.697H152.571V156.166H146.468V141.697Z" fill="white"/>
<path d="M162.689 149.326C163.303 149.677 163.978 150.001 164.715 150.3C165.469 150.58 166.241 150.826 167.03 151.036C167.819 151.229 168.608 151.387 169.397 151.51C170.187 151.615 170.914 151.668 171.581 151.668C172.423 151.668 173.072 151.58 173.528 151.404C173.983 151.212 174.211 150.966 174.211 150.668C174.211 150.405 174.027 150.177 173.659 149.984C173.291 149.791 172.808 149.607 172.212 149.431C171.616 149.256 170.932 149.081 170.16 148.905C169.389 148.712 168.599 148.493 167.793 148.248C167.004 147.985 166.223 147.686 165.451 147.353C164.68 147.003 163.996 146.582 163.4 146.091C162.803 145.582 162.321 144.994 161.953 144.328C161.584 143.644 161.4 142.846 161.4 141.934C161.4 141.057 161.611 140.251 162.032 139.514C162.453 138.76 163.066 138.111 163.873 137.567C164.68 137.006 165.662 136.568 166.819 136.252C167.994 135.936 169.327 135.778 170.818 135.778C172.344 135.778 173.659 135.901 174.764 136.147C175.886 136.392 176.816 136.664 177.552 136.962C178.412 137.331 179.148 137.734 179.762 138.172L177.316 142.644C176.842 142.381 176.307 142.145 175.711 141.934C175.115 141.706 174.501 141.522 173.869 141.382C173.238 141.224 172.616 141.101 172.002 141.013C171.405 140.926 170.853 140.882 170.344 140.882C169.52 140.882 168.863 140.978 168.371 141.171C167.88 141.364 167.635 141.636 167.635 141.987C167.635 142.25 167.819 142.478 168.187 142.671C168.556 142.846 169.038 143.021 169.634 143.197C170.23 143.372 170.914 143.548 171.686 143.723C172.458 143.898 173.238 144.118 174.027 144.381C174.834 144.626 175.623 144.924 176.395 145.275C177.167 145.626 177.851 146.055 178.447 146.564C179.043 147.073 179.525 147.678 179.894 148.379C180.262 149.063 180.446 149.879 180.446 150.826C180.446 151.545 180.271 152.264 179.92 152.983C179.569 153.702 179.026 154.351 178.289 154.929C177.552 155.508 176.605 155.973 175.448 156.324C174.308 156.692 172.94 156.876 171.344 156.876C169.783 156.876 168.354 156.753 167.056 156.508C165.776 156.28 164.662 156.017 163.715 155.719C162.61 155.385 161.611 155 160.716 154.561L162.689 149.326ZM183.203 136.436H192.121L195.619 147.932L199.145 136.436H208.062V156.166H201.959V144.486L198.513 156.166H192.726L189.306 144.486V156.166H183.203V136.436ZM217.181 136.436H225.915L233.07 156.166H226.546L225.52 153.062H217.549L216.524 156.166H210.026L217.181 136.436ZM223.942 148.221L221.969 142.329H221.101L219.128 148.221H223.942ZM235.019 136.436H246.778C247.9 136.436 248.944 136.568 249.909 136.831C250.873 137.094 251.706 137.515 252.408 138.093C253.127 138.655 253.688 139.391 254.091 140.303C254.495 141.198 254.696 142.285 254.696 143.565C254.696 144.407 254.591 145.17 254.381 145.854C254.17 146.538 253.872 147.152 253.486 147.695C253.118 148.221 252.671 148.677 252.145 149.063C251.618 149.449 251.048 149.773 250.435 150.037L255.091 156.166H247.883L244.542 151.326H241.122V156.166H235.019V136.436ZM241.122 141.697V146.222H246.226C246.962 146.222 247.541 146.047 247.962 145.696C248.383 145.345 248.593 144.784 248.593 144.012C248.593 143.591 248.523 143.232 248.383 142.934C248.26 142.636 248.085 142.399 247.857 142.224C247.646 142.031 247.401 141.899 247.12 141.829C246.839 141.741 246.541 141.697 246.226 141.697H241.122ZM262.791 141.697H256.504V136.436H275.182V141.697H268.895V156.166H262.791V141.697Z" fill="#F1C900"/>
<path d="M98.8033 162.247H111.313C112.507 162.247 113.617 162.387 114.643 162.667C115.669 162.947 116.555 163.395 117.302 164.01C118.066 164.607 118.663 165.391 119.093 166.361C119.522 167.312 119.736 168.469 119.736 169.831C119.736 170.727 119.624 171.538 119.4 172.266C119.177 172.993 118.859 173.646 118.449 174.225C118.057 174.785 117.581 175.27 117.022 175.68C116.462 176.091 115.856 176.436 115.203 176.716L120.156 183.236H112.488L108.934 178.087H105.296V183.236H98.8033V162.247ZM105.296 167.844V172.658H110.725C111.509 172.658 112.124 172.471 112.572 172.098C113.02 171.725 113.244 171.128 113.244 170.307C113.244 169.859 113.169 169.477 113.02 169.159C112.889 168.842 112.703 168.59 112.46 168.404C112.236 168.199 111.975 168.059 111.676 167.984C111.378 167.891 111.061 167.844 110.725 167.844H105.296ZM122.443 162.247H140.326V167.844H128.936V170.447H139.374V175.036H128.936V177.639H140.326V183.236H122.443V162.247ZM149.336 162.247L154.122 176.995H154.933L159.719 162.247H166.659L159.047 183.236H150.036L142.424 162.247H149.336ZM169.019 162.247H175.512V183.236H169.019V162.247ZM178.96 162.247H196.843V167.844H185.453V170.447H195.891V175.036H185.453V177.639H196.843V183.236H178.96V162.247ZM205.798 162.247L208.988 175.26L212.094 162.247H218.027L221.133 175.288L224.324 162.247H231.208L225.275 183.236H217.943L215.061 172.854L212.178 183.236H204.846L198.941 162.247H205.798ZM233.291 162.247H251.174V167.844H239.784V170.447H250.222V175.036H239.784V177.639H251.174V183.236H233.291V162.247ZM254.307 162.247H264.802C266.35 162.247 267.759 162.471 269.028 162.919C270.315 163.367 271.416 164.038 272.33 164.934C273.244 165.811 273.944 166.911 274.429 168.236C274.932 169.561 275.184 171.1 275.184 172.854C275.184 174.607 274.932 176.137 274.429 177.443C273.944 178.73 273.244 179.803 272.33 180.661C271.416 181.52 270.315 182.163 269.028 182.592C267.759 183.022 266.35 183.236 264.802 183.236H254.307V162.247ZM260.8 167.508V177.975H264.298C265.641 177.975 266.705 177.546 267.488 176.688C268.272 175.811 268.664 174.477 268.664 172.686C268.664 170.895 268.272 169.589 267.488 168.768C266.705 167.928 265.641 167.508 264.298 167.508H260.8Z" fill="white"/>
<defs>
<filter id="filter0_f_491_657" x="-10.514" y="104.35" width="122.959" height="83.608" filterUnits="userSpaceOnUse" color-interpolation-filters="sRGB">
<feFlood flood-opacity="0" result="BackgroundImageFix"/>
<feBlend mode="normal" in="SourceGraphic" in2="BackgroundImageFix" result="shape"/>
<feGaussianBlur stdDeviation="3.34189" result="effect1_foregroundBlur_491_657"/>
</filter>
<filter id="filter1_f_491_657" x="-3.0141" y="126.17" width="121.193" height="80.6876" filterUnits="userSpaceOnUse" color-interpolation-filters="sRGB">
<feFlood flood-opacity="0" result="BackgroundImageFix"/>
<feBlend mode="normal" in="SourceGraphic" in2="BackgroundImageFix" result="shape"/>
<feGaussianBlur stdDeviation="3.34189" result="effect1_foregroundBlur_491_657"/>
</filter>
<linearGradient id="paint0_linear_491_657" x1="33.4682" y1="131.183" x2="97.1026" y2="219.604" gradientUnits="userSpaceOnUse">
<stop stop-color="#F1C900"/>
<stop offset="1" stop-color="#071239"/>
</linearGradient>
<linearGradient id="paint1_linear_491_657" x1="33.4681" y1="131.183" x2="97.1026" y2="219.604" gradientUnits="userSpaceOnUse">
<stop stop-color="#F1C900"/>
<stop offset="1" stop-color="#071239"/>
</linearGradient>
<clipPath id="clip0_491_657">
<rect x="231" y="24" width="45" height="45" rx="5.29412" fill="white"/>
</clipPath>
</defs>
</svg>
