<svg width="300" height="217" viewBox="0 0 300 217" fill="none" xmlns="http://www.w3.org/2000/svg">
<rect width="300" height="216.117" rx="16" fill="#071239"/>
<rect x="23.0001" y="24" width="45" height="45" rx="5.29412" fill="#F1C900"/>
<path d="M45.5002 30.6177L49.066 41.5921H60.6052L51.2698 48.3747L54.8356 59.3491L45.5002 52.5665L36.1647 59.3491L39.7305 48.3747L30.3951 41.5921H41.9343L45.5002 30.6177Z" fill="#071239"/>
<rect x="74.7501" y="24" width="45" height="45" rx="5.29412" fill="#F1C900"/>
<path d="M97.2502 30.6177L100.816 41.5921H112.355L103.02 48.3747L106.586 59.3491L97.2502 52.5665L87.9147 59.3491L91.4805 48.3747L82.1451 41.5921H93.6843L97.2502 30.6177Z" fill="#071239"/>
<rect x="126.5" y="24" width="45" height="45" rx="5.29412" fill="#F1C900"/>
<path d="M149 30.6177L152.566 41.5921H164.105L154.77 48.3747L158.336 59.3491L149 52.5665L139.665 59.3491L143.231 48.3747L133.895 41.5921H145.434L149 30.6177Z" fill="#071239"/>
<rect x="178.25" y="24" width="45" height="45" rx="5.29412" fill="#F1C900"/>
<path d="M200.75 30.6177L204.316 41.5921H215.855L206.52 48.3747L210.086 59.3491L200.75 52.5665L191.415 59.3491L194.981 48.3747L185.645 41.5921H197.184L200.75 30.6177Z" fill="#071239"/>
<rect x="230" y="24" width="45" height="45" rx="5.29412" fill="#F1C900"/>
<path d="M252.5 30.6177L256.066 41.5921H267.605L258.27 48.3747L261.836 59.3491L252.5 52.5665L243.165 59.3491L246.731 48.3747L237.395 41.5921H248.934L252.5 30.6177Z" fill="#071239"/>
<path d="M25.7353 101.761L33.0292 100.849C33.3464 103.109 36.2005 104.972 39.3321 104.972C43.2169 104.972 45.4765 103.228 45.4765 100.572C45.4765 97.6782 42.8602 96.0926 39.6096 96.0926C35.9627 96.0926 34.2581 98.0746 34.0995 98.1935L26.5282 97.4007L29.858 80.5534H51.3037V86.7374H35.6852L34.2185 93.2384C36.2402 92.3664 38.6186 91.9303 41.3538 91.9303C48.2117 91.9303 52.6514 95.4583 52.6514 101.404C52.6514 107.192 47.3396 111.077 39.57 111.077C31.5229 111.077 26.4092 107.113 25.7353 101.761ZM58.373 106.756C58.373 104.457 59.9983 102.911 62.456 102.911C64.8741 102.911 66.539 104.457 66.539 106.756C66.539 109.095 64.8741 110.641 62.456 110.641C59.9983 110.641 58.373 109.095 58.373 106.756ZM72.1516 95.4187C72.1516 84.9932 77.9788 79.5624 86.7394 79.5624C95.4604 79.5624 101.288 84.9932 101.288 95.4187C101.288 105.844 95.4604 111.275 86.7394 111.275C78.0185 111.275 72.1516 105.844 72.1516 95.4187ZM86.7394 104.893C91.8135 104.893 93.9937 101.206 93.9937 95.4187C93.9937 89.4726 91.8135 85.9049 86.7394 85.9049C81.6654 85.9049 79.4852 89.5915 79.4852 95.4187C79.4852 101.206 81.6654 104.893 86.7394 104.893ZM119.443 107.588L121.901 101.206C125.588 103.347 130.622 104.853 135.26 104.853C138.867 104.853 140.929 103.902 140.929 102.594C140.929 98.7485 120.395 99.2242 120.395 88.5608C120.395 83.3679 125.429 79.6813 134.229 79.6813C142.673 79.6813 147.271 83.4868 147.271 83.4868L144.06 89.0365C141.563 87.332 137.123 86.0238 133.793 86.0238C130.226 86.0238 127.768 87.0941 127.768 88.7987C127.768 92.961 148.381 92.0889 148.381 102.673C148.381 106.756 144.338 111.315 134.983 111.315C125.865 111.315 119.443 107.588 119.443 107.588ZM161.654 110.284V86.8959H152.021V80.5534H178.58V86.8959H168.948V110.284H161.654ZM175.82 110.284L186.603 80.5534H197.781L208.564 110.284H200.794L198.971 104.853H185.374L183.59 110.284H175.82ZM187.316 99.026H197.028L193.064 87.213H191.28L187.316 99.026ZM212.445 110.284V80.5534H228.777C235.714 80.5534 240.947 83.3679 240.947 91.1771C240.947 96.489 238.092 99.6999 234.287 101.246L241.462 110.284H232.622L227.152 102.832H219.739V110.284H212.445ZM228.856 86.8959H219.739V96.5683H228.856C231.908 96.5683 233.613 95.0619 233.613 91.9303C233.613 88.1248 231.155 86.8959 228.856 86.8959ZM244.908 107.588L247.366 101.206C251.052 103.347 256.087 104.853 260.725 104.853C264.332 104.853 266.393 103.902 266.393 102.594C266.393 98.7485 245.859 99.2242 245.859 88.5608C245.859 83.3679 250.894 79.6813 259.694 79.6813C268.138 79.6813 272.736 83.4868 272.736 83.4868L269.525 89.0365C267.028 87.332 262.588 86.0238 259.258 86.0238C255.69 86.0238 253.233 87.0941 253.233 88.7987C253.233 92.961 273.846 92.0889 273.846 102.673C273.846 106.756 269.803 111.315 260.447 111.315C251.33 111.315 244.908 107.588 244.908 107.588Z" fill="white"/>
<path d="M37.2283 141.069V146.778L35.8359 168.779L38.0638 181.45L68.0016 182.147L75.7993 173.374L72.8751 141.069H37.2283Z" fill="#071239"/>
<path d="M52.312 128.452C53.7816 126.895 56.2478 126.895 57.7173 128.452L61.6968 132.685C62.6643 133.718 64.0974 134.184 65.4868 133.914L71.1978 132.831C73.3002 132.43 75.3007 133.886 75.5699 136.01L76.2974 141.772C76.4793 143.176 77.3599 144.398 78.6402 144.995L83.8999 147.475C85.835 148.392 86.5984 150.741 85.5728 152.611L82.772 157.71C82.0954 158.947 82.0954 160.454 82.772 161.698L85.5728 166.789C86.5985 168.666 85.8351 171.017 83.8999 171.926L78.6402 174.407C77.3598 175.01 76.4793 176.225 76.2974 177.629L75.5699 183.399C75.3005 185.516 73.3001 186.971 71.1978 186.571L65.4868 185.487C64.0974 185.225 62.6643 185.683 61.6968 186.716L57.7173 190.95C56.2478 192.506 53.7815 192.506 52.312 190.95L48.3335 186.716C47.366 185.683 45.932 185.225 44.5425 185.487L38.8316 186.571C36.7295 186.97 34.7288 185.515 34.4595 183.399L33.732 177.629C33.55 176.225 32.6704 175.011 31.3902 174.407L26.1304 171.926C24.1953 171.017 23.4308 168.666 24.4566 166.789L27.2574 161.698C27.9412 160.454 27.9412 158.947 27.2574 157.71L24.4566 152.611C23.4312 150.741 24.1954 148.392 26.1304 147.475L31.3902 144.995C32.6703 144.398 33.55 143.176 33.732 141.772L34.4595 136.01C34.7287 133.886 36.7293 132.431 38.8316 132.831L44.5425 133.914C45.932 134.184 47.366 133.718 48.3335 132.685L52.312 128.452ZM39.1304 143.503V177.361H63.9742C66.8549 177.361 69.4669 176.181 71.3511 174.297V174.305C73.228 172.428 74.4136 169.823 74.4136 166.935C74.4135 164.76 73.7371 162.708 72.5659 161.006C71.9913 160.17 71.2855 159.421 70.4927 158.781V153.302C70.4927 150.465 69.4522 148.093 67.7427 146.391C65.633 144.281 62.8535 143.503 60.6929 143.503H39.1304ZM60.6929 145.678C62.3952 145.678 64.578 146.304 66.2076 147.926C67.4879 149.214 68.31 151.025 68.3101 153.302V159.901C69.2921 160.512 70.1289 161.305 70.7691 162.236C71.7002 163.589 72.231 165.212 72.231 166.936C72.2309 169.213 71.2994 171.279 69.8081 172.77C68.3168 174.261 66.2511 175.193 63.9742 175.193H41.3052V145.678H60.6929ZM43.4878 147.861V156.904L46.5367 157.922L53.607 160.279L64.9341 164.055C66.1708 164.47 67.0074 165.619 67.0074 166.936C67.0071 168.602 65.6399 169.962 63.9742 169.962H46.5367V160.221L43.4878 159.203V173.01H63.9742C67.3204 173.01 70.0559 170.282 70.0562 166.936C70.0562 164.397 68.4841 162.142 66.1343 161.24L63.0865 160.228L48.7115 155.434L46.5367 154.706V150.909H60.6714C61.399 150.923 63.0863 151.186 63.0865 153.302V157.929L66.1343 158.948V153.302C66.1342 149.308 62.8753 147.861 60.6929 147.861H43.4878Z" fill="#F1C900"/>
<path d="M52.312 128.452C53.7816 126.895 56.2478 126.895 57.7173 128.452L61.6968 132.685C62.6643 133.718 64.0974 134.184 65.4868 133.914L71.1978 132.831C73.3002 132.43 75.3007 133.886 75.5699 136.01L76.2974 141.772C76.4793 143.176 77.3599 144.398 78.6402 144.995L83.8999 147.475C85.835 148.392 86.5984 150.741 85.5728 152.611L82.772 157.71C82.0954 158.947 82.0954 160.454 82.772 161.698L85.5728 166.789C86.5985 168.666 85.8351 171.017 83.8999 171.926L78.6402 174.407C77.3598 175.01 76.4793 176.225 76.2974 177.629L75.5699 183.399C75.3005 185.516 73.3001 186.971 71.1978 186.571L65.4868 185.487C64.0974 185.225 62.6643 185.683 61.6968 186.716L57.7173 190.95C56.2478 192.506 53.7815 192.506 52.312 190.95L48.3335 186.716C47.366 185.683 45.932 185.225 44.5425 185.487L38.8316 186.571C36.7295 186.97 34.7288 185.515 34.4595 183.399L33.732 177.629C33.55 176.225 32.6704 175.011 31.3902 174.407L26.1304 171.926C24.1953 171.017 23.4308 168.666 24.4566 166.789L27.2574 161.698C27.9412 160.454 27.9412 158.947 27.2574 157.71L24.4566 152.611C23.4312 150.741 24.1954 148.392 26.1304 147.475L31.3902 144.995C32.6703 144.398 33.55 143.176 33.732 141.772L34.4595 136.01C34.7287 133.886 36.7293 132.431 38.8316 132.831L44.5425 133.914C45.932 134.184 47.366 133.718 48.3335 132.685L52.312 128.452ZM39.1304 143.503V177.361H63.9742C66.8549 177.361 69.4669 176.181 71.3511 174.297V174.305C73.228 172.428 74.4136 169.823 74.4136 166.935C74.4135 164.76 73.7371 162.708 72.5659 161.006C71.9913 160.17 71.2855 159.421 70.4927 158.781V153.302C70.4927 150.465 69.4522 148.093 67.7427 146.391C65.633 144.281 62.8535 143.503 60.6929 143.503H39.1304ZM60.6929 145.678C62.3952 145.678 64.578 146.304 66.2076 147.926C67.4879 149.214 68.31 151.025 68.3101 153.302V159.901C69.2921 160.512 70.1289 161.305 70.7691 162.236C71.7002 163.589 72.231 165.212 72.231 166.936C72.2309 169.213 71.2994 171.279 69.8081 172.77C68.3168 174.261 66.2511 175.193 63.9742 175.193H41.3052V145.678H60.6929ZM43.4878 147.861V156.904L46.5367 157.922L53.607 160.279L64.9341 164.055C66.1708 164.47 67.0074 165.619 67.0074 166.936C67.0071 168.602 65.6399 169.962 63.9742 169.962H46.5367V160.221L43.4878 159.203V173.01H63.9742C67.3204 173.01 70.0559 170.282 70.0562 166.936C70.0562 164.397 68.4841 162.142 66.1343 161.24L63.0865 160.228L48.7115 155.434L46.5367 154.706V150.909H60.6714C61.399 150.923 63.0863 151.186 63.0865 153.302V157.929L66.1343 158.948V153.302C66.1342 149.308 62.8753 147.861 60.6929 147.861H43.4878Z" fill="url(#paint0_linear_491_657)" fill-opacity="0.5"/>
<mask id="mask0_491_657" style="mask-type:alpha" maskUnits="userSpaceOnUse" x="24" y="127" width="63" height="66">
<path d="M52.312 128.452C53.7816 126.895 56.2478 126.895 57.7173 128.452L61.6968 132.685C62.6643 133.718 64.0974 134.184 65.4868 133.914L71.1978 132.831C73.3002 132.43 75.3007 133.886 75.5699 136.01L76.2974 141.772C76.4793 143.176 77.3599 144.398 78.6402 144.995L83.8999 147.475C85.835 148.392 86.5984 150.741 85.5728 152.611L82.772 157.71C82.0954 158.947 82.0954 160.454 82.772 161.698L85.5728 166.789C86.5985 168.666 85.8351 171.017 83.8999 171.926L78.6402 174.407C77.3598 175.01 76.4793 176.225 76.2974 177.629L75.5699 183.399C75.3005 185.516 73.3001 186.971 71.1978 186.571L65.4868 185.487C64.0974 185.225 62.6643 185.683 61.6968 186.716L57.7173 190.95C56.2478 192.506 53.7815 192.506 52.312 190.95L48.3335 186.716C47.366 185.683 45.932 185.225 44.5425 185.487L38.8316 186.571C36.7295 186.97 34.7288 185.515 34.4595 183.399L33.732 177.629C33.55 176.225 32.6704 175.011 31.3902 174.407L26.1304 171.926C24.1953 171.017 23.4308 168.666 24.4566 166.789L27.2574 161.698C27.9412 160.454 27.9412 158.947 27.2574 157.71L24.4566 152.611C23.4312 150.741 24.1954 148.392 26.1304 147.475L31.3902 144.995C32.6703 144.398 33.55 143.176 33.732 141.772L34.4595 136.01C34.7287 133.886 36.7293 132.431 38.8316 132.831L44.5425 133.914C45.932 134.184 47.366 133.718 48.3335 132.685L52.312 128.452ZM39.1304 143.503V177.361H63.9742C66.8549 177.361 69.4669 176.181 71.3511 174.297V174.305C73.228 172.428 74.4136 169.823 74.4136 166.935C74.4135 164.76 73.7371 162.708 72.5659 161.006C71.9913 160.17 71.2855 159.421 70.4927 158.781V153.302C70.4927 150.465 69.4522 148.093 67.7427 146.391C65.633 144.281 62.8535 143.503 60.6929 143.503H39.1304ZM60.6929 145.678C62.3952 145.678 64.578 146.304 66.2076 147.926C67.4879 149.214 68.31 151.025 68.3101 153.302V159.901C69.2921 160.512 70.1289 161.305 70.7691 162.236C71.7002 163.589 72.231 165.212 72.231 166.936C72.2309 169.213 71.2994 171.279 69.8081 172.77C68.3168 174.261 66.2511 175.193 63.9742 175.193H41.3052V145.678H60.6929ZM43.4878 147.861V156.904L46.5367 157.922L53.607 160.279L64.9341 164.055C66.1708 164.47 67.0074 165.619 67.0074 166.936C67.0071 168.602 65.6399 169.962 63.9742 169.962H46.5367V160.221L43.4878 159.203V173.01H63.9742C67.3204 173.01 70.0559 170.282 70.0562 166.936C70.0562 164.397 68.4841 162.142 66.1343 161.24L63.0865 160.228L48.7115 155.434L46.5367 154.706V150.909H60.6714C61.399 150.923 63.0863 151.186 63.0865 153.302V157.929L66.1343 158.948V153.302C66.1342 149.308 62.8753 147.861 60.6929 147.861H43.4878Z" fill="#F1C900"/>
<path d="M52.312 128.452C53.7816 126.895 56.2478 126.895 57.7173 128.452L61.6968 132.685C62.6643 133.718 64.0974 134.184 65.4868 133.914L71.1978 132.831C73.3002 132.43 75.3007 133.886 75.5699 136.01L76.2974 141.772C76.4793 143.176 77.3599 144.398 78.6402 144.995L83.8999 147.475C85.835 148.392 86.5984 150.741 85.5728 152.611L82.772 157.71C82.0954 158.947 82.0954 160.454 82.772 161.698L85.5728 166.789C86.5985 168.666 85.8351 171.017 83.8999 171.926L78.6402 174.407C77.3598 175.01 76.4793 176.225 76.2974 177.629L75.5699 183.399C75.3005 185.516 73.3001 186.971 71.1978 186.571L65.4868 185.487C64.0974 185.225 62.6643 185.683 61.6968 186.716L57.7173 190.95C56.2478 192.506 53.7815 192.506 52.312 190.95L48.3335 186.716C47.366 185.683 45.932 185.225 44.5425 185.487L38.8316 186.571C36.7295 186.97 34.7288 185.515 34.4595 183.399L33.732 177.629C33.55 176.225 32.6704 175.011 31.3902 174.407L26.1304 171.926C24.1953 171.017 23.4308 168.666 24.4566 166.789L27.2574 161.698C27.9412 160.454 27.9412 158.947 27.2574 157.71L24.4566 152.611C23.4312 150.741 24.1954 148.392 26.1304 147.475L31.3902 144.995C32.6703 144.398 33.55 143.176 33.732 141.772L34.4595 136.01C34.7287 133.886 36.7293 132.431 38.8316 132.831L44.5425 133.914C45.932 134.184 47.366 133.718 48.3335 132.685L52.312 128.452ZM39.1304 143.503V177.361H63.9742C66.8549 177.361 69.4669 176.181 71.3511 174.297V174.305C73.228 172.428 74.4136 169.823 74.4136 166.935C74.4135 164.76 73.7371 162.708 72.5659 161.006C71.9913 160.17 71.2855 159.421 70.4927 158.781V153.302C70.4927 150.465 69.4522 148.093 67.7427 146.391C65.633 144.281 62.8535 143.503 60.6929 143.503H39.1304ZM60.6929 145.678C62.3952 145.678 64.578 146.304 66.2076 147.926C67.4879 149.214 68.31 151.025 68.3101 153.302V159.901C69.2921 160.512 70.1289 161.305 70.7691 162.236C71.7002 163.589 72.231 165.212 72.231 166.936C72.2309 169.213 71.2994 171.279 69.8081 172.77C68.3168 174.261 66.2511 175.193 63.9742 175.193H41.3052V145.678H60.6929ZM43.4878 147.861V156.904L46.5367 157.922L53.607 160.279L64.9341 164.055C66.1708 164.47 67.0074 165.619 67.0074 166.936C67.0071 168.602 65.6399 169.962 63.9742 169.962H46.5367V160.221L43.4878 159.203V173.01H63.9742C67.3204 173.01 70.0559 170.282 70.0562 166.936C70.0562 164.397 68.4841 162.142 66.1343 161.24L63.0865 160.228L48.7115 155.434L46.5367 154.706V150.909H60.6714C61.399 150.923 63.0863 151.186 63.0865 153.302V157.929L66.1343 158.948V153.302C66.1342 149.308 62.8753 147.861 60.6929 147.861H43.4878Z" fill="url(#paint1_linear_491_657)" fill-opacity="0.5"/>
</mask>
<g mask="url(#mask0_491_657)">
<g style="mix-blend-mode:soft-light" filter="url(#filter0_f_491_657)">
<rect x="-3.82971" y="175.017" width="123.65" height="7.31171" transform="rotate(-31.1619 -3.82971 175.017)" fill="white"/>
</g>
<g style="mix-blend-mode:soft-light" filter="url(#filter1_f_491_657)">
<rect x="3.67023" y="196.837" width="123.65" height="3.89887" transform="rotate(-31.1619 3.67023 196.837)" fill="white"/>
</g>
</g>
<path d="M98.7355 136.436H111.836C112.695 136.436 113.502 136.532 114.256 136.725C115.028 136.918 115.703 137.225 116.282 137.646C116.861 138.049 117.317 138.567 117.65 139.198C118.001 139.829 118.176 140.583 118.176 141.46C118.176 142.635 117.887 143.591 117.308 144.328C116.729 145.047 115.966 145.582 115.019 145.932C116.159 146.231 117.071 146.757 117.755 147.511C118.439 148.265 118.781 149.335 118.781 150.72C118.781 151.615 118.614 152.404 118.281 153.088C117.965 153.772 117.527 154.342 116.966 154.798C116.405 155.254 115.729 155.596 114.94 155.824C114.169 156.052 113.336 156.166 112.441 156.166H98.7355V136.436ZM104.839 141.697V144.328H110.547C110.95 144.328 111.275 144.214 111.52 143.986C111.783 143.74 111.915 143.407 111.915 142.986C111.915 142.565 111.783 142.249 111.52 142.039C111.275 141.811 110.95 141.697 110.547 141.697H104.839ZM104.839 148.142V150.904H110.942C111.398 150.904 111.766 150.799 112.047 150.589C112.345 150.378 112.494 150.019 112.494 149.51C112.494 149.001 112.345 148.651 112.047 148.458C111.766 148.247 111.398 148.142 110.942 148.142H104.839ZM121.162 136.436H137.972V141.697H127.265V144.144H137.077V148.458H127.265V150.904H137.972V156.166H121.162V136.436ZM146.468 141.697H140.181V136.436H158.858V141.697H152.571V156.166H146.468V141.697Z" fill="white"/>
<path d="M162.689 149.326C163.303 149.677 163.978 150.001 164.715 150.299C165.469 150.58 166.241 150.825 167.03 151.036C167.819 151.229 168.608 151.387 169.397 151.509C170.187 151.615 170.914 151.667 171.581 151.667C172.423 151.667 173.072 151.579 173.528 151.404C173.983 151.211 174.211 150.966 174.211 150.668C174.211 150.404 174.027 150.176 173.659 149.984C173.291 149.791 172.808 149.606 172.212 149.431C171.616 149.256 170.932 149.08 170.16 148.905C169.389 148.712 168.599 148.493 167.793 148.247C167.004 147.984 166.223 147.686 165.451 147.353C164.68 147.002 163.996 146.581 163.4 146.09C162.803 145.582 162.321 144.994 161.953 144.328C161.584 143.644 161.4 142.846 161.4 141.934C161.4 141.057 161.611 140.25 162.032 139.514C162.453 138.76 163.066 138.111 163.873 137.567C164.68 137.006 165.662 136.567 166.819 136.252C167.994 135.936 169.327 135.778 170.818 135.778C172.344 135.778 173.659 135.901 174.764 136.146C175.886 136.392 176.816 136.664 177.552 136.962C178.412 137.33 179.148 137.734 179.762 138.172L177.316 142.644C176.842 142.381 176.307 142.144 175.711 141.934C175.115 141.706 174.501 141.522 173.869 141.381C173.238 141.224 172.616 141.101 172.002 141.013C171.405 140.925 170.853 140.882 170.344 140.882C169.52 140.882 168.863 140.978 168.371 141.171C167.88 141.364 167.635 141.636 167.635 141.986C167.635 142.249 167.819 142.477 168.187 142.67C168.556 142.846 169.038 143.021 169.634 143.197C170.23 143.372 170.914 143.547 171.686 143.723C172.458 143.898 173.238 144.117 174.027 144.38C174.834 144.626 175.623 144.924 176.395 145.275C177.167 145.625 177.851 146.055 178.447 146.564C179.043 147.072 179.525 147.677 179.894 148.379C180.262 149.063 180.446 149.878 180.446 150.825C180.446 151.544 180.271 152.263 179.92 152.982C179.569 153.702 179.026 154.35 178.289 154.929C177.552 155.508 176.605 155.973 175.448 156.323C174.308 156.692 172.94 156.876 171.344 156.876C169.783 156.876 168.354 156.753 167.056 156.508C165.776 156.28 164.662 156.016 163.715 155.718C162.61 155.385 161.611 154.999 160.716 154.561L162.689 149.326ZM183.203 136.436H192.121L195.619 147.932L199.145 136.436H208.062V156.166H201.959V144.486L198.513 156.166H192.726L189.306 144.486V156.166H183.203V136.436ZM217.181 136.436H225.915L233.07 156.166H226.546L225.52 153.061H217.549L216.524 156.166H210.026L217.181 136.436ZM223.942 148.221L221.969 142.328H221.101L219.128 148.221H223.942ZM235.019 136.436H246.778C247.9 136.436 248.944 136.567 249.909 136.83C250.873 137.093 251.706 137.514 252.408 138.093C253.127 138.654 253.688 139.391 254.091 140.303C254.495 141.197 254.696 142.285 254.696 143.565C254.696 144.407 254.591 145.169 254.381 145.853C254.17 146.537 253.872 147.151 253.486 147.695C253.118 148.221 252.671 148.677 252.145 149.063C251.618 149.449 251.048 149.773 250.435 150.036L255.091 156.166H247.883L244.542 151.325H241.122V156.166H235.019V136.436ZM241.122 141.697V146.222H246.226C246.962 146.222 247.541 146.046 247.962 145.696C248.383 145.345 248.593 144.784 248.593 144.012C248.593 143.591 248.523 143.232 248.383 142.933C248.26 142.635 248.085 142.399 247.857 142.223C247.646 142.03 247.401 141.899 247.12 141.829C246.839 141.741 246.541 141.697 246.226 141.697H241.122ZM262.791 141.697H256.504V136.436H275.182V141.697H268.895V156.166H262.791V141.697Z" fill="#F1C900"/>
<path d="M98.8033 162.247H111.313C112.507 162.247 113.617 162.387 114.643 162.667C115.669 162.946 116.555 163.394 117.302 164.01C118.066 164.607 118.663 165.39 119.093 166.361C119.522 167.312 119.736 168.469 119.736 169.831C119.736 170.726 119.624 171.538 119.4 172.265C119.177 172.993 118.859 173.646 118.449 174.224C118.057 174.784 117.581 175.269 117.022 175.68C116.462 176.09 115.856 176.435 115.203 176.715L120.156 183.236H112.488L108.934 178.086H105.296V183.236H98.8033V162.247ZM105.296 167.844V172.657H110.725C111.509 172.657 112.124 172.471 112.572 172.098C113.02 171.724 113.244 171.127 113.244 170.307C113.244 169.859 113.169 169.476 113.02 169.159C112.889 168.842 112.703 168.59 112.46 168.404C112.236 168.198 111.975 168.058 111.676 167.984C111.378 167.89 111.061 167.844 110.725 167.844H105.296ZM122.443 162.247H140.326V167.844H128.936V170.446H139.374V175.036H128.936V177.639H140.326V183.236H122.443V162.247ZM149.336 162.247L154.122 176.995H154.933L159.719 162.247H166.659L159.047 183.236H150.036L142.424 162.247H149.336ZM169.019 162.247H175.512V183.236H169.019V162.247ZM178.96 162.247H196.843V167.844H185.453V170.446H195.891V175.036H185.453V177.639H196.843V183.236H178.96V162.247ZM205.798 162.247L208.988 175.26L212.094 162.247H218.027L221.133 175.288L224.324 162.247H231.208L225.275 183.236H217.943L215.061 172.853L212.178 183.236H204.846L198.941 162.247H205.798ZM233.291 162.247H251.174V167.844H239.784V170.446H250.222V175.036H239.784V177.639H251.174V183.236H233.291V162.247ZM254.307 162.247H264.802C266.35 162.247 267.759 162.471 269.028 162.918C270.315 163.366 271.416 164.038 272.33 164.933C273.244 165.81 273.944 166.911 274.429 168.236C274.932 169.56 275.184 171.099 275.184 172.853C275.184 174.607 274.932 176.137 274.429 177.443C273.944 178.73 273.244 179.803 272.33 180.661C271.416 181.519 270.315 182.163 269.028 182.592C267.759 183.021 266.35 183.236 264.802 183.236H254.307V162.247ZM260.8 167.508V177.974H264.298C265.641 177.974 266.705 177.545 267.488 176.687C268.272 175.81 268.664 174.476 268.664 172.685C268.664 170.894 268.272 169.588 267.488 168.767C266.705 167.928 265.641 167.508 264.298 167.508H260.8Z" fill="white"/>
<defs>
<filter id="filter0_f_491_657" x="-10.5135" y="104.35" width="122.959" height="83.608" filterUnits="userSpaceOnUse" color-interpolation-filters="sRGB">
<feFlood flood-opacity="0" result="BackgroundImageFix"/>
<feBlend mode="normal" in="SourceGraphic" in2="BackgroundImageFix" result="shape"/>
<feGaussianBlur stdDeviation="3.34189" result="effect1_foregroundBlur_491_657"/>
</filter>
<filter id="filter1_f_491_657" x="-3.01355" y="126.17" width="121.193" height="80.6876" filterUnits="userSpaceOnUse" color-interpolation-filters="sRGB">
<feFlood flood-opacity="0" result="BackgroundImageFix"/>
<feBlend mode="normal" in="SourceGraphic" in2="BackgroundImageFix" result="shape"/>
<feGaussianBlur stdDeviation="3.34189" result="effect1_foregroundBlur_491_657"/>
</filter>
<linearGradient id="paint0_linear_491_657" x1="33.4687" y1="131.183" x2="97.1031" y2="219.603" gradientUnits="userSpaceOnUse">
<stop stop-color="#F1C900"/>
<stop offset="1" stop-color="#071239"/>
</linearGradient>
<linearGradient id="paint1_linear_491_657" x1="33.4687" y1="131.183" x2="97.1031" y2="219.603" gradientUnits="userSpaceOnUse">
<stop stop-color="#F1C900"/>
<stop offset="1" stop-color="#071239"/>
</linearGradient>
</defs>
</svg>
