<svg width="300" height="217" viewBox="0 0 300 217" fill="none" xmlns="http://www.w3.org/2000/svg">
<rect width="300" height="216.117" rx="16" fill="#071239"/>
<rect x="22.5001" y="24" width="45" height="45" rx="5.29412" fill="#F1C900"/>
<path d="M45.0002 30.6177L48.566 41.5921H60.1052L50.7698 48.3747L54.3356 59.3491L45.0002 52.5665L35.6647 59.3491L39.2305 48.3747L29.8951 41.5921H41.4343L45.0002 30.6177Z" fill="#071239"/>
<rect x="74.2501" y="24" width="45" height="45" rx="5.29412" fill="#F1C900"/>
<path d="M96.7502 30.6177L100.316 41.5921H111.855L102.52 48.3747L106.086 59.3491L96.7502 52.5665L87.4147 59.3491L90.9805 48.3747L81.6451 41.5921H93.1843L96.7502 30.6177Z" fill="#071239"/>
<rect x="126" y="24" width="45" height="45" rx="5.29412" fill="#F1C900"/>
<path d="M148.5 30.6177L152.066 41.5921H163.605L154.27 48.3747L157.836 59.3491L148.5 52.5665L139.165 59.3491L142.731 48.3747L133.395 41.5921H144.934L148.5 30.6177Z" fill="#071239"/>
<rect x="177.75" y="24" width="45" height="45" rx="5.29412" fill="#F1C900"/>
<path d="M200.25 30.6177L203.816 41.5921H215.355L206.02 48.3747L209.586 59.3491L200.25 52.5665L190.915 59.3491L194.481 48.3747L185.145 41.5921H196.684L200.25 30.6177Z" fill="#071239"/>
<rect x="229.5" y="24" width="45" height="45" rx="5.29412" fill="#C4C4C4"/>
<path d="M252 30.6177L255.566 41.5921H267.105L257.77 48.3747L261.336 59.3491L252 52.5665L242.665 59.3491L246.231 48.3747L236.895 41.5921H248.434L252 30.6177Z" fill="#071239"/>
<path d="M42.2016 110.284V104.496H25.2353V98.7882L38.1979 80.5534H49.4955V98.7882H53.2614V104.496H49.4955V110.284H42.2016ZM32.6482 98.7882H42.2016V84.9139L32.6482 98.7882ZM58.8408 106.756C58.8408 104.457 60.4661 102.911 62.9238 102.911C65.3419 102.911 67.0068 104.457 67.0068 106.756C67.0068 109.095 65.3419 110.641 62.9238 110.641C60.4661 110.641 58.8408 109.095 58.8408 106.756ZM72.6194 95.4187C72.6194 84.9932 78.4466 79.5624 87.2072 79.5624C95.9282 79.5624 101.755 84.9932 101.755 95.4187C101.755 105.844 95.9282 111.275 87.2072 111.275C78.4863 111.275 72.6194 105.844 72.6194 95.4187ZM87.2072 104.893C92.2813 104.893 94.4615 101.206 94.4615 95.4187C94.4615 89.4726 92.2813 85.9049 87.2072 85.9049C82.1332 85.9049 79.953 89.5915 79.953 95.4187C79.953 101.206 82.1332 104.893 87.2072 104.893ZM119.911 107.588L122.369 101.206C126.056 103.347 131.09 104.853 135.728 104.853C139.335 104.853 141.397 103.902 141.397 102.594C141.397 98.7485 120.863 99.2242 120.863 88.5608C120.863 83.3679 125.897 79.6813 134.697 79.6813C143.141 79.6813 147.739 83.4868 147.739 83.4868L144.528 89.0365C142.031 87.332 137.591 86.0238 134.261 86.0238C130.694 86.0238 128.236 87.0941 128.236 88.7987C128.236 92.961 148.849 92.0889 148.849 102.673C148.849 106.756 144.806 111.315 135.45 111.315C126.333 111.315 119.911 107.588 119.911 107.588ZM162.122 110.284V86.8959H152.489V80.5534H179.048V86.8959H169.415V110.284H162.122ZM176.288 110.284L187.07 80.5534H198.249L209.031 110.284H201.262L199.438 104.853H185.842L184.058 110.284H176.288ZM187.784 99.026H197.496L193.532 87.213H191.748L187.784 99.026ZM212.913 110.284V80.5534H229.245C236.182 80.5534 241.414 83.3679 241.414 91.1771C241.414 96.489 238.56 99.6999 234.755 101.246L241.93 110.284H233.09L227.619 102.832H220.206V110.284H212.913ZM229.324 86.8959H220.206V96.5683H229.324C232.376 96.5683 234.081 95.0619 234.081 91.9303C234.081 88.1248 231.623 86.8959 229.324 86.8959ZM245.376 107.588L247.834 101.206C251.52 103.347 256.555 104.853 261.193 104.853C264.8 104.853 266.861 103.902 266.861 102.594C266.861 98.7485 246.327 99.2242 246.327 88.5608C246.327 83.3679 251.362 79.6813 260.162 79.6813C268.605 79.6813 273.204 83.4868 273.204 83.4868L269.993 89.0365C267.495 87.332 263.056 86.0238 259.726 86.0238C256.158 86.0238 253.7 87.0941 253.7 88.7987C253.7 92.961 274.314 92.0889 274.314 102.673C274.314 106.756 270.27 111.315 260.915 111.315C251.798 111.315 245.376 107.588 245.376 107.588Z" fill="white"/>
<path d="M37.2283 141.069V146.778L35.8359 168.779L38.0638 181.45L68.0016 182.147L75.7993 173.374L72.8751 141.069H37.2283Z" fill="#071239"/>
<path d="M52.312 128.452C53.7816 126.895 56.2478 126.895 57.7173 128.452L61.6968 132.685C62.6643 133.718 64.0974 134.184 65.4868 133.914L71.1978 132.831C73.3002 132.43 75.3007 133.886 75.5699 136.01L76.2974 141.772C76.4793 143.176 77.3599 144.398 78.6402 144.995L83.8999 147.475C85.835 148.392 86.5984 150.741 85.5728 152.611L82.772 157.71C82.0954 158.947 82.0954 160.454 82.772 161.698L85.5728 166.789C86.5985 168.666 85.8351 171.017 83.8999 171.926L78.6402 174.407C77.3598 175.01 76.4793 176.225 76.2974 177.629L75.5699 183.399C75.3005 185.516 73.3001 186.971 71.1978 186.571L65.4868 185.487C64.0974 185.225 62.6643 185.683 61.6968 186.716L57.7173 190.95C56.2478 192.506 53.7815 192.506 52.312 190.95L48.3335 186.716C47.366 185.683 45.932 185.225 44.5425 185.487L38.8316 186.571C36.7295 186.97 34.7288 185.515 34.4595 183.399L33.732 177.629C33.55 176.225 32.6704 175.011 31.3902 174.407L26.1304 171.926C24.1953 171.017 23.4308 168.666 24.4566 166.789L27.2574 161.698C27.9412 160.454 27.9412 158.947 27.2574 157.71L24.4566 152.611C23.4312 150.741 24.1954 148.392 26.1304 147.475L31.3902 144.995C32.6703 144.398 33.55 143.176 33.732 141.772L34.4595 136.01C34.7287 133.886 36.7293 132.431 38.8316 132.831L44.5425 133.914C45.932 134.184 47.366 133.718 48.3335 132.685L52.312 128.452ZM39.1304 143.503V177.361H63.9742C66.8549 177.361 69.4669 176.181 71.3511 174.297V174.305C73.228 172.428 74.4136 169.823 74.4136 166.935C74.4135 164.76 73.7371 162.708 72.5659 161.006C71.9913 160.17 71.2855 159.421 70.4927 158.781V153.302C70.4927 150.465 69.4522 148.093 67.7427 146.391C65.633 144.281 62.8535 143.503 60.6929 143.503H39.1304ZM60.6929 145.678C62.3952 145.678 64.578 146.304 66.2076 147.926C67.4879 149.214 68.31 151.025 68.3101 153.302V159.901C69.2921 160.512 70.1289 161.305 70.7691 162.236C71.7002 163.589 72.231 165.212 72.231 166.936C72.2309 169.213 71.2994 171.279 69.8081 172.77C68.3168 174.261 66.2511 175.193 63.9742 175.193H41.3052V145.678H60.6929ZM43.4878 147.861V156.904L46.5367 157.922L53.607 160.279L64.9341 164.055C66.1708 164.47 67.0074 165.619 67.0074 166.936C67.0071 168.602 65.6399 169.962 63.9742 169.962H46.5367V160.221L43.4878 159.203V173.01H63.9742C67.3204 173.01 70.0559 170.282 70.0562 166.936C70.0562 164.397 68.4841 162.142 66.1343 161.24L63.0865 160.228L48.7115 155.434L46.5367 154.706V150.909H60.6714C61.399 150.923 63.0863 151.186 63.0865 153.302V157.929L66.1343 158.948V153.302C66.1342 149.308 62.8753 147.861 60.6929 147.861H43.4878Z" fill="#F1C900"/>
<path d="M52.312 128.452C53.7816 126.895 56.2478 126.895 57.7173 128.452L61.6968 132.685C62.6643 133.718 64.0974 134.184 65.4868 133.914L71.1978 132.831C73.3002 132.43 75.3007 133.886 75.5699 136.01L76.2974 141.772C76.4793 143.176 77.3599 144.398 78.6402 144.995L83.8999 147.475C85.835 148.392 86.5984 150.741 85.5728 152.611L82.772 157.71C82.0954 158.947 82.0954 160.454 82.772 161.698L85.5728 166.789C86.5985 168.666 85.8351 171.017 83.8999 171.926L78.6402 174.407C77.3598 175.01 76.4793 176.225 76.2974 177.629L75.5699 183.399C75.3005 185.516 73.3001 186.971 71.1978 186.571L65.4868 185.487C64.0974 185.225 62.6643 185.683 61.6968 186.716L57.7173 190.95C56.2478 192.506 53.7815 192.506 52.312 190.95L48.3335 186.716C47.366 185.683 45.932 185.225 44.5425 185.487L38.8316 186.571C36.7295 186.97 34.7288 185.515 34.4595 183.399L33.732 177.629C33.55 176.225 32.6704 175.011 31.3902 174.407L26.1304 171.926C24.1953 171.017 23.4308 168.666 24.4566 166.789L27.2574 161.698C27.9412 160.454 27.9412 158.947 27.2574 157.71L24.4566 152.611C23.4312 150.741 24.1954 148.392 26.1304 147.475L31.3902 144.995C32.6703 144.398 33.55 143.176 33.732 141.772L34.4595 136.01C34.7287 133.886 36.7293 132.431 38.8316 132.831L44.5425 133.914C45.932 134.184 47.366 133.718 48.3335 132.685L52.312 128.452ZM39.1304 143.503V177.361H63.9742C66.8549 177.361 69.4669 176.181 71.3511 174.297V174.305C73.228 172.428 74.4136 169.823 74.4136 166.935C74.4135 164.76 73.7371 162.708 72.5659 161.006C71.9913 160.17 71.2855 159.421 70.4927 158.781V153.302C70.4927 150.465 69.4522 148.093 67.7427 146.391C65.633 144.281 62.8535 143.503 60.6929 143.503H39.1304ZM60.6929 145.678C62.3952 145.678 64.578 146.304 66.2076 147.926C67.4879 149.214 68.31 151.025 68.3101 153.302V159.901C69.2921 160.512 70.1289 161.305 70.7691 162.236C71.7002 163.589 72.231 165.212 72.231 166.936C72.2309 169.213 71.2994 171.279 69.8081 172.77C68.3168 174.261 66.2511 175.193 63.9742 175.193H41.3052V145.678H60.6929ZM43.4878 147.861V156.904L46.5367 157.922L53.607 160.279L64.9341 164.055C66.1708 164.47 67.0074 165.619 67.0074 166.936C67.0071 168.602 65.6399 169.962 63.9742 169.962H46.5367V160.221L43.4878 159.203V173.01H63.9742C67.3204 173.01 70.0559 170.282 70.0562 166.936C70.0562 164.397 68.4841 162.142 66.1343 161.24L63.0865 160.228L48.7115 155.434L46.5367 154.706V150.909H60.6714C61.399 150.923 63.0863 151.186 63.0865 153.302V157.929L66.1343 158.948V153.302C66.1342 149.308 62.8753 147.861 60.6929 147.861H43.4878Z" fill="url(#paint0_linear_491_657)" fill-opacity="0.5"/>
<mask id="mask0_491_657" style="mask-type:alpha" maskUnits="userSpaceOnUse" x="24" y="127" width="63" height="66">
<path d="M52.312 128.452C53.7816 126.895 56.2478 126.895 57.7173 128.452L61.6968 132.685C62.6643 133.718 64.0974 134.184 65.4868 133.914L71.1978 132.831C73.3002 132.43 75.3007 133.886 75.5699 136.01L76.2974 141.772C76.4793 143.176 77.3599 144.398 78.6402 144.995L83.8999 147.475C85.835 148.392 86.5984 150.741 85.5728 152.611L82.772 157.71C82.0954 158.947 82.0954 160.454 82.772 161.698L85.5728 166.789C86.5985 168.666 85.8351 171.017 83.8999 171.926L78.6402 174.407C77.3598 175.01 76.4793 176.225 76.2974 177.629L75.5699 183.399C75.3005 185.516 73.3001 186.971 71.1978 186.571L65.4868 185.487C64.0974 185.225 62.6643 185.683 61.6968 186.716L57.7173 190.95C56.2478 192.506 53.7815 192.506 52.312 190.95L48.3335 186.716C47.366 185.683 45.932 185.225 44.5425 185.487L38.8316 186.571C36.7295 186.97 34.7288 185.515 34.4595 183.399L33.732 177.629C33.55 176.225 32.6704 175.011 31.3902 174.407L26.1304 171.926C24.1953 171.017 23.4308 168.666 24.4566 166.789L27.2574 161.698C27.9412 160.454 27.9412 158.947 27.2574 157.71L24.4566 152.611C23.4312 150.741 24.1954 148.392 26.1304 147.475L31.3902 144.995C32.6703 144.398 33.55 143.176 33.732 141.772L34.4595 136.01C34.7287 133.886 36.7293 132.431 38.8316 132.831L44.5425 133.914C45.932 134.184 47.366 133.718 48.3335 132.685L52.312 128.452ZM39.1304 143.503V177.361H63.9742C66.8549 177.361 69.4669 176.181 71.3511 174.297V174.305C73.228 172.428 74.4136 169.823 74.4136 166.935C74.4135 164.76 73.7371 162.708 72.5659 161.006C71.9913 160.17 71.2855 159.421 70.4927 158.781V153.302C70.4927 150.465 69.4522 148.093 67.7427 146.391C65.633 144.281 62.8535 143.503 60.6929 143.503H39.1304ZM60.6929 145.678C62.3952 145.678 64.578 146.304 66.2076 147.926C67.4879 149.214 68.31 151.025 68.3101 153.302V159.901C69.2921 160.512 70.1289 161.305 70.7691 162.236C71.7002 163.589 72.231 165.212 72.231 166.936C72.2309 169.213 71.2994 171.279 69.8081 172.77C68.3168 174.261 66.2511 175.193 63.9742 175.193H41.3052V145.678H60.6929ZM43.4878 147.861V156.904L46.5367 157.922L53.607 160.279L64.9341 164.055C66.1708 164.47 67.0074 165.619 67.0074 166.936C67.0071 168.602 65.6399 169.962 63.9742 169.962H46.5367V160.221L43.4878 159.203V173.01H63.9742C67.3204 173.01 70.0559 170.282 70.0562 166.936C70.0562 164.397 68.4841 162.142 66.1343 161.24L63.0865 160.228L48.7115 155.434L46.5367 154.706V150.909H60.6714C61.399 150.923 63.0863 151.186 63.0865 153.302V157.929L66.1343 158.948V153.302C66.1342 149.308 62.8753 147.861 60.6929 147.861H43.4878Z" fill="#F1C900"/>
<path d="M52.312 128.452C53.7816 126.895 56.2478 126.895 57.7173 128.452L61.6968 132.685C62.6643 133.718 64.0974 134.184 65.4868 133.914L71.1978 132.831C73.3002 132.43 75.3007 133.886 75.5699 136.01L76.2974 141.772C76.4793 143.176 77.3599 144.398 78.6402 144.995L83.8999 147.475C85.835 148.392 86.5984 150.741 85.5728 152.611L82.772 157.71C82.0954 158.947 82.0954 160.454 82.772 161.698L85.5728 166.789C86.5985 168.666 85.8351 171.017 83.8999 171.926L78.6402 174.407C77.3598 175.01 76.4793 176.225 76.2974 177.629L75.5699 183.399C75.3005 185.516 73.3001 186.971 71.1978 186.571L65.4868 185.487C64.0974 185.225 62.6643 185.683 61.6968 186.716L57.7173 190.95C56.2478 192.506 53.7815 192.506 52.312 190.95L48.3335 186.716C47.366 185.683 45.932 185.225 44.5425 185.487L38.8316 186.571C36.7295 186.97 34.7288 185.515 34.4595 183.399L33.732 177.629C33.55 176.225 32.6704 175.011 31.3902 174.407L26.1304 171.926C24.1953 171.017 23.4308 168.666 24.4566 166.789L27.2574 161.698C27.9412 160.454 27.9412 158.947 27.2574 157.71L24.4566 152.611C23.4312 150.741 24.1954 148.392 26.1304 147.475L31.3902 144.995C32.6703 144.398 33.55 143.176 33.732 141.772L34.4595 136.01C34.7287 133.886 36.7293 132.431 38.8316 132.831L44.5425 133.914C45.932 134.184 47.366 133.718 48.3335 132.685L52.312 128.452ZM39.1304 143.503V177.361H63.9742C66.8549 177.361 69.4669 176.181 71.3511 174.297V174.305C73.228 172.428 74.4136 169.823 74.4136 166.935C74.4135 164.76 73.7371 162.708 72.5659 161.006C71.9913 160.17 71.2855 159.421 70.4927 158.781V153.302C70.4927 150.465 69.4522 148.093 67.7427 146.391C65.633 144.281 62.8535 143.503 60.6929 143.503H39.1304ZM60.6929 145.678C62.3952 145.678 64.578 146.304 66.2076 147.926C67.4879 149.214 68.31 151.025 68.3101 153.302V159.901C69.2921 160.512 70.1289 161.305 70.7691 162.236C71.7002 163.589 72.231 165.212 72.231 166.936C72.2309 169.213 71.2994 171.279 69.8081 172.77C68.3168 174.261 66.2511 175.193 63.9742 175.193H41.3052V145.678H60.6929ZM43.4878 147.861V156.904L46.5367 157.922L53.607 160.279L64.9341 164.055C66.1708 164.47 67.0074 165.619 67.0074 166.936C67.0071 168.602 65.6399 169.962 63.9742 169.962H46.5367V160.221L43.4878 159.203V173.01H63.9742C67.3204 173.01 70.0559 170.282 70.0562 166.936C70.0562 164.397 68.4841 162.142 66.1343 161.24L63.0865 160.228L48.7115 155.434L46.5367 154.706V150.909H60.6714C61.399 150.923 63.0863 151.186 63.0865 153.302V157.929L66.1343 158.948V153.302C66.1342 149.308 62.8753 147.861 60.6929 147.861H43.4878Z" fill="url(#paint1_linear_491_657)" fill-opacity="0.5"/>
</mask>
<g mask="url(#mask0_491_657)">
<g style="mix-blend-mode:soft-light" filter="url(#filter0_f_491_657)">
<rect x="-3.82971" y="175.017" width="123.65" height="7.31171" transform="rotate(-31.1619 -3.82971 175.017)" fill="white"/>
</g>
<g style="mix-blend-mode:soft-light" filter="url(#filter1_f_491_657)">
<rect x="3.67023" y="196.837" width="123.65" height="3.89887" transform="rotate(-31.1619 3.67023 196.837)" fill="white"/>
</g>
</g>
<path d="M98.7355 136.436H111.836C112.695 136.436 113.502 136.532 114.256 136.725C115.028 136.918 115.703 137.225 116.282 137.646C116.861 138.049 117.317 138.567 117.65 139.198C118.001 139.829 118.176 140.583 118.176 141.46C118.176 142.635 117.887 143.591 117.308 144.328C116.729 145.047 115.966 145.582 115.019 145.932C116.159 146.231 117.071 146.757 117.755 147.511C118.439 148.265 118.781 149.335 118.781 150.72C118.781 151.615 118.614 152.404 118.281 153.088C117.965 153.772 117.527 154.342 116.966 154.798C116.405 155.254 115.729 155.596 114.94 155.824C114.169 156.052 113.336 156.166 112.441 156.166H98.7355V136.436ZM104.839 141.697V144.328H110.547C110.95 144.328 111.275 144.214 111.52 143.986C111.783 143.74 111.915 143.407 111.915 142.986C111.915 142.565 111.783 142.249 111.52 142.039C111.275 141.811 110.95 141.697 110.547 141.697H104.839ZM104.839 148.142V150.904H110.942C111.398 150.904 111.766 150.799 112.047 150.589C112.345 150.378 112.494 150.019 112.494 149.51C112.494 149.001 112.345 148.651 112.047 148.458C111.766 148.247 111.398 148.142 110.942 148.142H104.839ZM121.162 136.436H137.972V141.697H127.265V144.144H137.077V148.458H127.265V150.904H137.972V156.166H121.162V136.436ZM146.468 141.697H140.181V136.436H158.858V141.697H152.571V156.166H146.468V141.697Z" fill="white"/>
<path d="M162.689 149.326C163.303 149.677 163.978 150.001 164.715 150.299C165.469 150.58 166.241 150.825 167.03 151.036C167.819 151.229 168.608 151.387 169.397 151.509C170.187 151.615 170.914 151.667 171.581 151.667C172.423 151.667 173.072 151.579 173.528 151.404C173.983 151.211 174.211 150.966 174.211 150.668C174.211 150.404 174.027 150.176 173.659 149.984C173.291 149.791 172.808 149.606 172.212 149.431C171.616 149.256 170.932 149.08 170.16 148.905C169.389 148.712 168.599 148.493 167.793 148.247C167.004 147.984 166.223 147.686 165.451 147.353C164.68 147.002 163.996 146.581 163.4 146.09C162.803 145.582 162.321 144.994 161.953 144.328C161.584 143.644 161.4 142.846 161.4 141.934C161.4 141.057 161.611 140.25 162.032 139.514C162.453 138.76 163.066 138.111 163.873 137.567C164.68 137.006 165.662 136.567 166.819 136.252C167.994 135.936 169.327 135.778 170.818 135.778C172.344 135.778 173.659 135.901 174.764 136.146C175.886 136.392 176.816 136.664 177.552 136.962C178.412 137.33 179.148 137.734 179.762 138.172L177.316 142.644C176.842 142.381 176.307 142.144 175.711 141.934C175.115 141.706 174.501 141.522 173.869 141.381C173.238 141.224 172.616 141.101 172.002 141.013C171.405 140.925 170.853 140.882 170.344 140.882C169.52 140.882 168.863 140.978 168.371 141.171C167.88 141.364 167.635 141.636 167.635 141.986C167.635 142.249 167.819 142.477 168.187 142.67C168.556 142.846 169.038 143.021 169.634 143.197C170.23 143.372 170.914 143.547 171.686 143.723C172.458 143.898 173.238 144.117 174.027 144.38C174.834 144.626 175.623 144.924 176.395 145.275C177.167 145.625 177.851 146.055 178.447 146.564C179.043 147.072 179.525 147.677 179.894 148.379C180.262 149.063 180.446 149.878 180.446 150.825C180.446 151.544 180.271 152.263 179.92 152.982C179.569 153.702 179.026 154.35 178.289 154.929C177.552 155.508 176.605 155.973 175.448 156.323C174.308 156.692 172.94 156.876 171.344 156.876C169.783 156.876 168.354 156.753 167.056 156.508C165.776 156.28 164.662 156.016 163.715 155.718C162.61 155.385 161.611 154.999 160.716 154.561L162.689 149.326ZM183.203 136.436H192.121L195.619 147.932L199.145 136.436H208.062V156.166H201.959V144.486L198.513 156.166H192.726L189.306 144.486V156.166H183.203V136.436ZM217.181 136.436H225.915L233.07 156.166H226.546L225.52 153.061H217.549L216.524 156.166H210.026L217.181 136.436ZM223.942 148.221L221.969 142.328H221.101L219.128 148.221H223.942ZM235.019 136.436H246.778C247.9 136.436 248.944 136.567 249.909 136.83C250.873 137.093 251.706 137.514 252.408 138.093C253.127 138.654 253.688 139.391 254.091 140.303C254.495 141.197 254.696 142.285 254.696 143.565C254.696 144.407 254.591 145.169 254.381 145.853C254.17 146.537 253.872 147.151 253.486 147.695C253.118 148.221 252.671 148.677 252.145 149.063C251.618 149.449 251.048 149.773 250.435 150.036L255.091 156.166H247.883L244.542 151.325H241.122V156.166H235.019V136.436ZM241.122 141.697V146.222H246.226C246.962 146.222 247.541 146.046 247.962 145.696C248.383 145.345 248.593 144.784 248.593 144.012C248.593 143.591 248.523 143.232 248.383 142.933C248.26 142.635 248.085 142.399 247.857 142.223C247.646 142.03 247.401 141.899 247.12 141.829C246.839 141.741 246.541 141.697 246.226 141.697H241.122ZM262.791 141.697H256.504V136.436H275.182V141.697H268.895V156.166H262.791V141.697Z" fill="#F1C900"/>
<path d="M98.8033 162.247H111.313C112.507 162.247 113.617 162.387 114.643 162.667C115.669 162.946 116.555 163.394 117.302 164.01C118.066 164.607 118.663 165.39 119.093 166.361C119.522 167.312 119.736 168.469 119.736 169.831C119.736 170.726 119.624 171.538 119.4 172.265C119.177 172.993 118.859 173.646 118.449 174.224C118.057 174.784 117.581 175.269 117.022 175.68C116.462 176.09 115.856 176.435 115.203 176.715L120.156 183.236H112.488L108.934 178.086H105.296V183.236H98.8033V162.247ZM105.296 167.844V172.657H110.725C111.509 172.657 112.124 172.471 112.572 172.098C113.02 171.724 113.244 171.127 113.244 170.307C113.244 169.859 113.169 169.476 113.02 169.159C112.889 168.842 112.703 168.59 112.46 168.404C112.236 168.198 111.975 168.058 111.676 167.984C111.378 167.89 111.061 167.844 110.725 167.844H105.296ZM122.443 162.247H140.326V167.844H128.936V170.446H139.374V175.036H128.936V177.639H140.326V183.236H122.443V162.247ZM149.336 162.247L154.122 176.995H154.933L159.719 162.247H166.659L159.047 183.236H150.036L142.424 162.247H149.336ZM169.019 162.247H175.512V183.236H169.019V162.247ZM178.96 162.247H196.843V167.844H185.453V170.446H195.891V175.036H185.453V177.639H196.843V183.236H178.96V162.247ZM205.798 162.247L208.988 175.26L212.094 162.247H218.027L221.133 175.288L224.324 162.247H231.208L225.275 183.236H217.943L215.061 172.853L212.178 183.236H204.846L198.941 162.247H205.798ZM233.291 162.247H251.174V167.844H239.784V170.446H250.222V175.036H239.784V177.639H251.174V183.236H233.291V162.247ZM254.307 162.247H264.802C266.35 162.247 267.759 162.471 269.028 162.918C270.315 163.366 271.416 164.038 272.33 164.933C273.244 165.81 273.944 166.911 274.429 168.236C274.932 169.56 275.184 171.099 275.184 172.853C275.184 174.607 274.932 176.137 274.429 177.443C273.944 178.73 273.244 179.803 272.33 180.661C271.416 181.519 270.315 182.163 269.028 182.592C267.759 183.021 266.35 183.236 264.802 183.236H254.307V162.247ZM260.8 167.508V177.974H264.298C265.641 177.974 266.705 177.545 267.488 176.687C268.272 175.81 268.664 174.476 268.664 172.685C268.664 170.894 268.272 169.588 267.488 168.767C266.705 167.928 265.641 167.508 264.298 167.508H260.8Z" fill="white"/>
<defs>
<filter id="filter0_f_491_657" x="-10.5135" y="104.35" width="122.959" height="83.608" filterUnits="userSpaceOnUse" color-interpolation-filters="sRGB">
<feFlood flood-opacity="0" result="BackgroundImageFix"/>
<feBlend mode="normal" in="SourceGraphic" in2="BackgroundImageFix" result="shape"/>
<feGaussianBlur stdDeviation="3.34189" result="effect1_foregroundBlur_491_657"/>
</filter>
<filter id="filter1_f_491_657" x="-3.01355" y="126.17" width="121.193" height="80.6876" filterUnits="userSpaceOnUse" color-interpolation-filters="sRGB">
<feFlood flood-opacity="0" result="BackgroundImageFix"/>
<feBlend mode="normal" in="SourceGraphic" in2="BackgroundImageFix" result="shape"/>
<feGaussianBlur stdDeviation="3.34189" result="effect1_foregroundBlur_491_657"/>
</filter>
<linearGradient id="paint0_linear_491_657" x1="33.4687" y1="131.183" x2="97.1031" y2="219.603" gradientUnits="userSpaceOnUse">
<stop stop-color="#F1C900"/>
<stop offset="1" stop-color="#071239"/>
</linearGradient>
<linearGradient id="paint1_linear_491_657" x1="33.4687" y1="131.183" x2="97.1031" y2="219.603" gradientUnits="userSpaceOnUse">
<stop stop-color="#F1C900"/>
<stop offset="1" stop-color="#071239"/>
</linearGradient>
</defs>
</svg>
